<svg xmlns="http://www.w3.org/2000/svg" width="20" height="26" fill="none" viewBox="0 0 20 26">
  <path fill="#fff" d="M20 2.925C13.75 2.925 11.25 1.3 10 0 8.75 1.3 6.25 2.925 0 2.925v10.4C0 16.25 1.25 21.45 10 26c8.75-4.55 10-9.75 10-12.675v-10.4Z"/>
  <path fill="#439F90" d="M10.638 18.47v.99a.54.54 0 0 1-.54.54.548.548 0 0 1-.576-.521l-.001-.019v-.972a5.232 5.232 0 0 1-3.326-1.334.673.673 0 0 1-.195-.478.77.77 0 0 1 .718-.777.74.74 0 0 1 .444.159 4.61 4.61 0 0 0 2.35 1.034v-3.536c-1.64-.441-3.352-.998-3.352-3.004 0-1.635 1.356-2.864 3.352-3.005V6.539a.54.54 0 0 1 1.082 0v1.052a4.688 4.688 0 0 1 2.775 1.113.673.673 0 0 1 .196.478.761.761 0 0 1-.763.75.659.659 0 0 1-.364-.114 4.169 4.169 0 0 0-1.835-.795v3.102c1.64.442 3.396 1.078 3.396 3.164.035 1.555-.94 3.022-3.36 3.181ZM9.521 8.952c-1.038.08-1.72.672-1.72 1.493 0 .822.753 1.114 1.72 1.397v-2.89Zm1.117 4.94v3.217c1.313-.159 1.774-.954 1.774-1.626.008-.928-.772-1.308-1.774-1.59Z"/>
</svg>
